<?xml version="1.0" standalone="no"?>
<!DOCTYPE svg PUBLIC "-//W3C//DTD SVG 20010904//EN"
 "http://www.w3.org/TR/2001/REC-SVG-20010904/DTD/svg10.dtd">
<svg version="1.0" xmlns="http://www.w3.org/2000/svg"
 width="728.000000pt" height="638.000000pt" viewBox="0 0 728.000000 638.000000"
 preserveAspectRatio="xMidYMid meet">
<metadata>
Created by potrace 1.16, written by Peter Selinger 2001-2019
</metadata>
<g transform="translate(0.000000,638.000000) scale(0.100000,-0.100000)"
fill="#000000" stroke="none">
<path d="M1445 6355 c-622 -163 -1096 -628 -1314 -1290 -259 -787 -128 -1647
378 -2480 217 -357 435 -628 791 -983 371 -371 665 -611 1115 -913 374 -251
620 -397 996 -593 151 -78 194 -96 229 -96 35 0 79 18 234 99 105 54 215 113
244 130 29 17 55 31 57 31 14 0 490 293 653 402 389 260 584 410 902 697 644
581 1067 1154 1325 1796 281 699 298 1417 50 2035 -50 125 -139 300 -200 395
-107 165 -364 428 -515 527 -160 104 -404 206 -595 249 -83 19 -118 20 -435
17 l-345 -4 -135 -36 c-74 -20 -193 -57 -264 -83 -114 -42 -167 -64 -361 -156
-90 -42 -288 -160 -426 -254 -75 -51 -149 -100 -166 -108 l-30 -16 -144 98
c-335 229 -684 400 -1009 497 -193 57 -262 64 -625 63 -302 -1 -325 -2 -410
-24z m1964 -2070 c47 -24 68 -82 301 -845 144 -473 250 -800 258 -800 4 0 72
113 152 252 166 288 244 407 280 426 21 11 150 12 725 8 385 -3 712 -8 726 -9
30 -5 85 -51 105 -89 31 -59 13 -116 -55 -182 l-40 -39 -233 6 c-128 4 -424 8
-657 9 l-423 3 -172 -300 c-228 -398 -334 -574 -366 -607 -49 -48 -153 -46
-200 4 -21 23 -72 172 -179 523 -38 127 -86 284 -106 350 -20 66 -48 158 -61
205 -14 47 -52 173 -86 280 -33 107 -63 205 -66 218 -2 13 -10 21 -16 19 -13
-4 -73 -108 -221 -382 -118 -218 -181 -320 -205 -332 -19 -10 -1275 -17 -1389
-8 -75 6 -87 10 -118 39 -64 58 -62 159 3 224 l34 34 650 -3 c406 -2 653 0
659 6 4 6 66 120 136 255 125 240 274 517 351 653 21 38 50 75 64 83 33 18
114 18 149 -1z"/>
</g>
</svg>
