<?xml version="1.0" standalone="no"?>
<!DOCTYPE svg PUBLIC "-//W3C//DTD SVG 20010904//EN"
 "http://www.w3.org/TR/2001/REC-SVG-20010904/DTD/svg10.dtd">
<svg version="1.0" xmlns="http://www.w3.org/2000/svg"
 width="612.000000pt" height="612.000000pt" viewBox="0 0 612.000000 612.000000"
 preserveAspectRatio="xMidYMid meet">
<metadata>
Created by potrace 1.16, written by Peter Selinger 2001-2019
</metadata>
<g transform="translate(0.000000,612.000000) scale(0.100000,-0.100000)"
fill="#000000" stroke="none">
<path d="M2950 4710 c-271 -29 -531 -123 -765 -278 -142 -95 -348 -301 -444
-446 -125 -188 -213 -401 -258 -621 -28 -139 -25 -493 5 -630 71 -323 211
-590 426 -812 328 -341 727 -514 1191 -516 178 0 266 10 433 53 505 130 928
509 1121 1005 135 345 146 758 30 1109 -167 504 -561 896 -1065 1061 -199 66
-473 96 -674 75z m382 -565 c138 -30 275 -86 398 -166 101 -65 265 -238 327
-344 269 -456 196 -1015 -180 -1372 -543 -516 -1417 -363 -1752 306 -79 158
-115 309 -115 486 0 306 109 570 324 787 176 178 408 288 676 322 58 7 251 -4
322 -19z"/>
<path d="M2701 3585 c-135 -38 -240 -140 -282 -275 -29 -90 -29 -206 1 -283
50 -131 198 -306 380 -448 101 -79 297 -209 314 -209 18 0 225 139 324 219 99
79 242 223 290 294 18 26 47 77 64 114 93 198 10 451 -180 550 -159 84 -320
66 -449 -51 l-52 -47 -43 44 c-92 92 -238 128 -367 92z"/>
<path d="M786 4678 c-3 -7 -14 -193 -26 -413 -24 -434 -23 -459 25 -563 13
-29 50 -80 81 -112 l56 -59 -1 -198 c-1 -109 -6 -391 -11 -628 -5 -236 -12
-610 -16 -830 l-7 -400 27 -32 28 -33 97 0 c89 0 99 2 119 23 13 13 26 37 30
53 5 16 3 304 -4 639 -7 336 -15 788 -19 1006 l-8 396 66 71 c80 88 108 153
114 267 3 44 -5 236 -16 427 -12 191 -21 358 -21 372 0 24 -4 26 -40 26 l-40
0 0 -363 c0 -356 -2 -387 -31 -387 -4 0 -15 7 -23 16 -14 13 -16 61 -16 375
l0 359 -40 0 -40 0 0 -369 c0 -331 -2 -369 -16 -375 -42 -16 -44 -2 -44 380
l0 364 -40 0 -40 0 -2 -366 c-3 -330 -5 -368 -20 -377 -12 -8 -21 -7 -32 2
-14 12 -16 58 -16 377 l0 364 -35 0 c-20 0 -37 -6 -39 -12z"/>
<path d="M5196 4669 c-66 -52 -108 -224 -165 -674 -38 -304 -43 -380 -39 -566
6 -217 18 -268 80 -336 l42 -44 -21 -772 c-19 -691 -19 -776 -6 -810 9 -21 24
-42 34 -47 24 -13 185 -13 210 0 10 6 26 24 34 41 15 27 15 96 1 748 -9 394
-16 1099 -16 1567 0 829 -1 850 -20 882 -17 28 -25 32 -64 32 -29 0 -52 -7
-70 -21z"/>
</g>
</svg>
