<?xml version="1.0" standalone="no"?>
<!DOCTYPE svg PUBLIC "-//W3C//DTD SVG 20010904//EN"
 "http://www.w3.org/TR/2001/REC-SVG-20010904/DTD/svg10.dtd">
<svg version="1.0" xmlns="http://www.w3.org/2000/svg"
 width="840.000000pt" height="467.000000pt" viewBox="0 0 840.000000 467.000000"
 preserveAspectRatio="xMidYMid meet">
<metadata>
Created by potrace 1.16, written by Peter Selinger 2001-2019
</metadata>
<g transform="translate(0.000000,467.000000) scale(0.100000,-0.100000)"
fill="#000000" stroke="none">
<path d="M3771 4250 c-57 -14 -114 -60 -143 -119 -49 -95 -32 -197 43 -268 67
-63 65 -63 532 -63 l424 0 126 -150 c70 -82 127 -152 127 -154 0 -3 -916 -869
-1048 -990 -135 -125 -162 -336 -64 -493 15 -23 209 -214 431 -425 337 -319
401 -383 385 -390 -10 -4 -245 -62 -522 -128 -567 -135 -568 -136 -616 -232
-60 -120 -12 -258 108 -314 28 -13 68 -24 89 -24 35 0 219 43 1160 269 416 99
430 105 479 200 32 61 37 130 13 187 -8 19 -152 235 -320 479 -168 245 -305
447 -305 449 0 2 73 56 163 118 89 63 276 194 415 292 140 98 258 174 262 170
5 -5 49 -107 99 -227 112 -273 127 -299 194 -337 l52 -30 485 0 c449 0 488 2
525 19 83 38 134 117 135 209 0 88 -45 163 -124 205 -40 21 -53 22 -425 27
l-385 5 -108 260 c-59 142 -117 273 -130 290 -59 80 -923 1097 -954 1123 -20
17 -56 35 -80 41 -50 13 -969 14 -1023 1z"/>
<path d="M6169 4096 c-83 -24 -143 -60 -210 -126 -77 -75 -114 -144 -136 -244
-37 -175 35 -366 179 -475 195 -146 465 -127 630 46 98 104 138 201 138 339 0
192 -127 376 -307 444 -72 28 -225 36 -294 16z"/>
<path d="M2570 3372 c-19 -9 -45 -33 -58 -52 -20 -29 -23 -44 -20 -88 4 -45
10 -59 42 -90 l36 -37 641 -3 c574 -2 644 -1 674 14 102 48 99 204 -5 256 -32
17 -85 18 -655 18 -570 0 -623 -1 -655 -18z"/>
<path d="M2013 2820 c-97 -59 -91 -200 11 -249 41 -21 57 -21 656 -21 593 0
615 1 655 20 105 51 111 190 12 250 -31 19 -55 20 -667 20 -612 0 -636 -1
-667 -20z"/>
<path d="M1480 2282 c-19 -9 -45 -33 -58 -52 -20 -29 -23 -44 -20 -88 4 -45
10 -59 42 -90 l36 -37 641 -3 c574 -2 644 -1 674 14 102 48 99 204 -5 256 -32
17 -85 18 -655 18 -570 0 -623 -1 -655 -18z"/>
<path d="M2640 1489 c-611 -525 -790 -684 -810 -719 -34 -60 -35 -165 -3 -226
65 -122 218 -175 334 -116 19 10 194 141 389 293 195 151 537 416 760 588 223
172 409 317 415 322 6 6 -13 30 -52 64 -123 110 -200 239 -232 388 l-17 79
-784 -673z"/>
</g>
</svg>
